<svg xmlns="http://www.w3.org/2000/svg" width="256" height="256"><path fill-opacity=".455" d="M0 128.011v103.997l128.25-.254 128.25-.254.255-104 .254-104-128.504.258L0 24.015v103.996M.482 128c0 57.475.12 80.987.268 52.25.147-28.738.147-75.763 0-104.5C.602 47.012.482 70.525.482 128" fill="#1976D2" fill-rule="evenodd"/><path fill-opacity=".561" d="M.063 38.75c.041 9.343.381 13.964.929 12.607C2.976 46.439 5.039 46 26.146 46c19.482 0 19.733.027 22.631 2.466 1.719 1.446 3.788 4.856 5.005 8.25 1.141 3.181 9.316 26.484 18.167 51.784 8.85 25.3 16.91 47.575 17.91 49.5 1.204 2.317 3.479 4.345 6.73 6l4.911 2.5 45.731.305c43.665.292 45.931.217 50.177-1.661 2.802-1.24 5.379-3.387 6.968-5.806 2.096-3.191 10.257-25.073 30.262-81.145 1.55-4.346 3.49-7.886 4.787-8.736 5.964-3.907 13.193-2.208 15.629 3.674 1.556 3.756.365 7.617-17.546 56.869-16.362 44.992-16.412 45.111-20.528 49.083-6.235 6.017-6.503 6.039-69.552 5.712l-57.072-.295-5.928-3.029c-5.322-2.719-6.258-3.69-9.162-9.5-4.966-9.938-15.995-38.401-27.704-71.498C41.73 83.988 36.523 69.478 35.991 68.23 34.547 64.838 31.056 64 18.369 64c-12.427 0-14.545-.602-16.81-4.775C.244 56.802.076 66.235.04 144.25L0 232l54.25-.063c36.938-.044 53.452-.38 51.75-1.055-4.08-1.619-8.964-7.036-10.08-11.181C93.086 209.178 101.146 199 112.312 199c8.579 0 15.688 7.477 15.688 16.5 0 6.604-2.875 11.171-8.97 14.25l-4.454 2.25h66.848l-4.462-2.25c-5.908-2.979-9.276-9.172-8.678-15.958 1.711-19.43 30.707-19.534 32.421-.116.611 6.924-2.711 13.071-8.694 16.087l-4.489 2.264 34.489-.264 34.489-.263.219-104 .219-104-52.219.375c-28.72.206-51.319.548-50.219.76 1.1.212 4.475.869 7.5 1.46 3.025.592 9.325 2.9 14 5.129 6.815 3.25 10.107 5.661 16.606 12.165 9.108 9.113 14.105 17.996 16.957 30.139 2.141 9.114 1.491 24.392-1.424 33.472-6.103 19.016-21.398 34.359-40.561 40.69-6.875 2.272-9.791 2.669-19.578 2.663-9.927-.005-12.593-.381-19.49-2.753-10.374-3.567-18.019-8.28-25.222-15.55-11.502-11.61-17.181-24.717-18.001-41.55-.926-18.998 4.692-33.516 18.237-47.128 6.483-6.514 9.764-8.928 16.532-12.164 4.644-2.221 10.919-4.521 13.944-5.113 3.025-.591 6.4-1.253 7.5-1.469 1.1-.217-30.287-.446-69.75-.51L0 24l.063 14.75M.4 38.5c.001 8.25.156 11.492.344 7.204.188-4.287.187-11.037-.002-15C.552 26.742.399 30.25.4 38.5m137.1-1.928c-9.366 1.851-20.325 7.413-26.545 13.472-6.464 6.296-6.518 9.179-.233 12.336 2.322 1.166 4.235 2.622 4.25 3.235.062 2.485 4.238 6.385 6.851 6.4 4.029.023 10.272 2.473 12.077 4.74 2.186 2.747 5.375 4.245 9.034 4.245 2.893 0 4.069 1.262 2.232 2.397-.458.284-2.048 2.268-3.532 4.409-3.772 5.443-2.723 7.98 7.483 18.105 1.99 1.974 4.288 4.109 5.106 4.744 1.628 1.263 1.517 2.459-1.75 18.944-2.07 10.446-1.676 13.115 1.67 11.324 1.196-.639 7.485-6.509 13.976-13.043 6.492-6.534 12.256-11.88 12.811-11.88 1.134 0 7.698-9.89 9.219-13.891.545-1.433 1.708-3.398 2.584-4.367 2.443-2.699.034-6.293-5.477-8.17-2.45-.835-6.211-3.105-8.358-5.045-2.147-1.94-4.85-3.527-6.007-3.527-1.156 0-3.357-1.055-4.89-2.345-3.113-2.62-14.253-4.27-18.34-2.716-1.257.478-4.058.8-6.223.715-3.508-.137-4.053-.509-4.99-3.409-.579-1.791-2.716-4.96-4.75-7.042-4.03-4.127-4.544-6.214-2.127-8.632 2.299-2.298 4.903-1.922 6.429.929 1.721 3.216 3 3.191 3-.059 0-5.635 11.684-15.727 19.691-17.008 4.25-.679 7.1-1.976 6.238-2.837-.282-.282-3.176-1.207-6.431-2.054-7.078-1.844-13.562-1.836-22.998.03M.479 144.5C.478 192.9.6 212.846.75 188.825c.149-24.021.149-63.621 0-88C.601 76.446.479 96.1.479 144.5" fill="#1976D2" fill-rule="evenodd"/><path fill-opacity=".967" d="M.03 37.75c.022 9.831.321 13.251 1.05 12C3.433 45.711 7.093 45 25.549 45c19.112 0 22.769.784 25.891 5.549.857 1.308 5.56 13.756 10.452 27.664 4.892 13.908 13.25 37.662 18.575 52.787 5.324 15.125 10.435 28.351 11.357 29.391.922 1.04 3.476 2.718 5.676 3.728 3.699 1.699 7.541 1.839 51.102 1.859l47.102.022 3.306-2.25c1.818-1.237 4.136-3.375 5.15-4.75 1.812-2.457 8.159-19.425 23.937-64 9.099-25.703 10.602-28 18.33-28 3.68 0 4.816.5 6.984 3.077 1.681 1.997 2.589 4.276 2.589 6.496 0 5.45-32.081 93.928-36.452 100.533-1.42 2.147-4.4 4.629-7.232 6.023L207.5 185.5h-116l-5.132-2.323c-2.823-1.277-6.349-3.591-7.835-5.143-4.295-4.483-20.121-44.13-36.537-91.534-3.428-9.9-6.924-18.787-7.769-19.75-1.308-1.489-3.417-1.755-14.132-1.785-13.49-.038-16.336-.811-18.699-5.075C.288 57.891.065 71.778.035 144.75L0 232l53.75-.039c46.174-.034 53.31-.231 50.629-1.398-7.137-3.106-11.44-14.173-8.382-21.556 1.667-4.023 7.086-8.652 11.776-10.057 7.798-2.337 16.668 2.401 19.787 10.569 2.972 7.781-.541 17.253-7.709 20.785-3.188 1.57-1.815 1.65 28.149 1.643 23.558-.006 30.996-.287 29.5-1.114-6.17-3.412-9.667-8.972-9.667-15.368 0-9.741 7.056-16.894 16.667-16.894 16.973 0 22.881 21.517 8.558 31.169l-3.394 2.287 33.418-.263 33.418-.264.197-104 .197-104-50.697.339c-46.189.309-50.119.462-44.197 1.725 17.774 3.792 34.729 17.094 42.712 33.509 5.29 10.877 6.759 17.239 6.679 28.927-.122 17.803-5.817 31.487-18.347 44.085-12.846 12.916-27.012 18.929-44.524 18.9-18.507-.03-32.285-5.676-45.034-18.453C90.213 119.23 84.762 106.131 84.748 87.5c-.008-9.205.425-12.34 2.654-19.215 6.702-20.674 23.742-36.746 44.814-42.266l7.284-1.909-69.75-.055L0 24l.03 13.75m.365-.25c.001 7.7.158 10.718.348 6.706.191-4.011.189-10.311-.002-14C.549 26.518.393 29.8.395 37.5m134.387.053c-14.35 3.479-30.454 15.925-28.202 21.795.288.752 2.228 1.929 4.31 2.616 2.855.942 4.077 2.055 4.972 4.531 1.287 3.558 3.817 4.951 10.985 6.048 2.819.432 5.105 1.542 6.5 3.157 2.982 3.45 6.708 5.203 9.804 4.612 4.13-.79 4.282 1.364.416 5.881-1.962 2.292-3.567 5.162-3.567 6.378 0 1.216 1.8 4.389 4 7.052 2.2 2.662 4 5.18 4 5.596 0 .416 1.8 1.892 4 3.281 4.725 2.983 4.833 3.85 2 16-1.867 8.008-2.64 16.5-1.501 16.5 1.738 0 13.491-10.492 17.578-15.693 2.695-3.428 6.67-7.253 8.835-8.499 2.164-1.245 4.681-3.624 5.593-5.286.912-1.662 2.714-4.964 4.004-7.337 1.291-2.374 3.025-5.352 3.855-6.618 1.332-2.032 1.336-2.551.036-4.406-.81-1.157-3.328-2.603-5.595-3.213-2.266-.611-5.498-2.487-7.181-4.17-1.682-1.683-4.649-3.493-6.592-4.023-1.942-.529-4.305-1.782-5.25-2.783-1.976-2.093-10.783-3.493-16.508-2.623-10.679 1.622-11.272 1.556-12.819-1.436-.8-1.548-1.455-3.381-1.455-4.075 0-.694-1.843-3.14-4.096-5.436-3.555-3.622-3.949-4.45-2.977-6.265.615-1.15 2.092-2.612 3.282-3.249 1.86-.995 2.48-.789 4.429 1.477 2.458 2.858 3.592 3.397 2.799 1.332-.814-2.121 4.695-9.33 10.025-13.12 2.884-2.05 7.164-3.98 10.246-4.62 2.91-.604 5.292-1.463 5.292-1.909 0-2.923-21.15-3.936-31.218-1.495M.478 145c0 48.125.123 67.813.272 43.75.149-24.062.149-63.437 0-87.5C.601 77.188.478 96.875.478 145" fill="#1976D2" fill-rule="evenodd"/></svg>